<svg width="167" height="53" viewBox="0 0 167 53" fill="none" xmlns="http://www.w3.org/2000/svg">
<path d="M65.3 22.2589C64.9267 22.2589 64.6067 22.1922 64.34 22.0589C64.0867 21.9122 63.9 21.6989 63.78 21.4189L58.94 10.3589C58.7267 9.86552 58.6733 9.48552 58.78 9.21886C58.9 8.93886 59.2133 8.67886 59.72 8.43886C60.0667 8.23886 60.36 8.13886 60.6 8.13886C60.8533 8.12552 61.0667 8.20552 61.24 8.37886C61.4267 8.53886 61.5867 8.78552 61.72 9.11886L65.26 17.9789L68.82 9.17886C68.9533 8.83219 69.1067 8.57219 69.28 8.39886C69.4667 8.22552 69.6867 8.13886 69.94 8.13886C70.1933 8.13886 70.4933 8.23886 70.84 8.43886C71.4133 8.70552 71.7333 8.98552 71.8 9.27886C71.88 9.55886 71.8133 9.93886 71.6 10.4189L66.76 21.4189C66.64 21.6722 66.4467 21.8789 66.18 22.0389C65.9267 22.1855 65.6333 22.2589 65.3 22.2589ZM75.2312 22.2589C74.7512 22.2589 74.4046 22.1922 74.1912 22.0589C73.9779 21.9122 73.8446 21.7189 73.7912 21.4789C73.7512 21.2389 73.7312 20.9922 73.7312 20.7389V9.79886C73.7312 9.53219 73.7512 9.28552 73.7912 9.05886C73.8446 8.83219 73.9779 8.64552 74.1912 8.49886C74.4046 8.35219 74.7579 8.27886 75.2512 8.27886C75.7579 8.27886 76.1112 8.35219 76.3112 8.49886C76.5246 8.64552 76.6512 8.83219 76.6912 9.05886C76.7446 9.28552 76.7712 9.53886 76.7712 9.81886V20.7589C76.7712 21.0122 76.7446 21.2589 76.6912 21.4989C76.6379 21.7255 76.5046 21.9122 76.2912 22.0589C76.0912 22.1922 75.7379 22.2589 75.2312 22.2589ZM82.2719 22.2589C81.8985 22.2589 81.5785 22.1922 81.3119 22.0589C81.0585 21.9122 80.8719 21.6989 80.7519 21.4189L75.9119 10.3589C75.6985 9.86552 75.6452 9.48552 75.7519 9.21886C75.8719 8.93886 76.1852 8.67886 76.6919 8.43886C77.0385 8.23886 77.3319 8.13886 77.5719 8.13886C77.8252 8.12552 78.0385 8.20552 78.2119 8.37886C78.3985 8.53886 78.5585 8.78552 78.6919 9.11886L82.2319 17.9789L85.7919 9.17886C85.9252 8.83219 86.0785 8.57219 86.2519 8.39886C86.4385 8.22552 86.6585 8.13886 86.9119 8.13886C87.1652 8.13886 87.4652 8.23886 87.8119 8.43886C88.3852 8.70552 88.7052 8.98552 88.7719 9.27886C88.8519 9.55886 88.7852 9.93886 88.5719 10.4189L83.7319 21.4189C83.6119 21.6722 83.4185 21.8789 83.1519 22.0389C82.8985 22.1855 82.6052 22.2589 82.2719 22.2589ZM92.4231 22.2589C91.9431 22.2589 91.5965 22.1922 91.3831 22.0589C91.1698 21.9122 91.0365 21.7189 90.9831 21.4789C90.9431 21.2389 90.9231 20.9922 90.9231 20.7389V9.79886C90.9231 9.21219 91.0365 8.81219 91.2631 8.59886C91.4898 8.38552 91.8965 8.27886 92.4831 8.27886H100.043C100.31 8.27886 100.556 8.30552 100.783 8.35886C101.01 8.39886 101.196 8.52552 101.343 8.73886C101.49 8.95219 101.563 9.31219 101.563 9.81886C101.563 10.2989 101.49 10.6455 101.343 10.8589C101.196 11.0722 101.003 11.2055 100.763 11.2589C100.536 11.2989 100.29 11.3189 100.023 11.3189H93.9631V13.8989H98.0831C98.3498 13.8989 98.5831 13.9189 98.7831 13.9589C98.9965 13.9989 99.1631 14.1122 99.2831 14.2989C99.4031 14.4855 99.4631 14.7989 99.4631 15.2389C99.4631 15.6522 99.4031 15.9522 99.2831 16.1389C99.1631 16.3255 98.9965 16.4389 98.7831 16.4789C98.5698 16.5189 98.3231 16.5389 98.0431 16.5389H93.9631V19.2189H100.043C100.31 19.2189 100.556 19.2455 100.783 19.2989C101.01 19.3522 101.196 19.4855 101.343 19.6989C101.49 19.8989 101.563 20.2522 101.563 20.7589C101.563 21.2389 101.49 21.5855 101.343 21.7989C101.196 22.0122 101.003 22.1389 100.763 22.1789C100.536 22.2322 100.29 22.2589 100.023 22.2589H92.4231ZM96.1231 3.87886C96.2165 3.87886 96.2965 3.89219 96.3631 3.91886C96.4431 3.94552 96.5031 3.96552 96.5431 3.97886L98.9831 4.87886C99.3565 4.99886 99.5831 5.20552 99.6631 5.49886C99.7431 5.79219 99.6898 6.11886 99.5031 6.47886C99.3565 6.79886 99.1831 7.05219 98.9831 7.23886C98.7831 7.41219 98.5831 7.45219 98.3831 7.35886L96.1231 6.41886L93.8831 7.31886C93.6565 7.41219 93.4431 7.36552 93.2431 7.17886C93.0565 6.99219 92.8831 6.75219 92.7231 6.45886C92.5231 6.08552 92.4631 5.76552 92.5431 5.49886C92.6231 5.21886 92.8565 5.01219 93.2431 4.87886L95.6831 3.97886C95.7098 3.96552 95.7631 3.94552 95.8431 3.91886C95.9365 3.89219 96.0298 3.87886 96.1231 3.87886ZM104.81 22.2589C104.343 22.2589 104.003 22.1855 103.79 22.0389C103.577 21.8922 103.443 21.7055 103.39 21.4789C103.337 21.2389 103.31 20.9855 103.31 20.7189V9.73886C103.31 9.48552 103.337 9.25219 103.39 9.03886C103.443 8.82552 103.577 8.65219 103.79 8.51886C104.017 8.37219 104.377 8.29886 104.87 8.29886C105.35 8.29886 105.683 8.35886 105.87 8.47886C106.057 8.58552 106.223 8.73886 106.37 8.93886L112.21 16.9589V9.73886C112.21 9.48552 112.237 9.25219 112.29 9.03886C112.357 8.82552 112.497 8.65219 112.71 8.51886C112.923 8.37219 113.27 8.29886 113.75 8.29886C114.243 8.29886 114.59 8.37219 114.79 8.51886C115.003 8.66552 115.13 8.85886 115.17 9.09886C115.223 9.32552 115.25 9.56552 115.25 9.81886V20.7389C115.25 20.9922 115.223 21.2389 115.17 21.4789C115.117 21.7055 114.983 21.8922 114.77 22.0389C114.557 22.1855 114.203 22.2589 113.71 22.2589C113.337 22.2589 113.043 22.2255 112.83 22.1589C112.63 22.0922 112.457 21.9655 112.31 21.7789L106.35 13.6989V20.7389C106.35 20.9922 106.323 21.2389 106.27 21.4789C106.217 21.7055 106.083 21.8922 105.87 22.0389C105.657 22.1855 105.303 22.2589 104.81 22.2589ZM124.243 22.4189C123.656 22.4189 123.036 22.3255 122.383 22.1389C121.729 21.9522 121.089 21.6722 120.463 21.2989C119.836 20.9255 119.263 20.4522 118.743 19.8789C118.236 19.2922 117.829 18.6122 117.523 17.8389C117.229 17.0522 117.083 16.1589 117.083 15.1589C117.083 14.1989 117.229 13.3455 117.523 12.5989C117.829 11.8389 118.236 11.1789 118.743 10.6189C119.249 10.0589 119.816 9.59886 120.443 9.23886C121.069 8.86552 121.716 8.59219 122.383 8.41886C123.049 8.23219 123.683 8.13886 124.283 8.13886C124.963 8.13886 125.556 8.21886 126.063 8.37886C126.569 8.53886 126.983 8.70552 127.303 8.87886C127.623 9.03886 127.823 9.15219 127.903 9.21886C128.143 9.36552 128.369 9.53219 128.583 9.71886C128.796 9.90552 128.909 10.1522 128.923 10.4589C128.923 10.6189 128.889 10.7789 128.823 10.9389C128.769 11.0855 128.683 11.2455 128.563 11.4189C128.349 11.7255 128.143 11.9522 127.943 12.0989C127.756 12.2322 127.563 12.2989 127.363 12.2989C127.203 12.2989 127.049 12.2589 126.903 12.1789C126.769 12.0989 126.596 11.9922 126.383 11.8589C126.289 11.7922 126.156 11.7122 125.983 11.6189C125.809 11.5122 125.576 11.4189 125.283 11.3389C124.989 11.2455 124.616 11.1989 124.163 11.1989C123.696 11.1989 123.223 11.2855 122.743 11.4589C122.276 11.6189 121.843 11.8655 121.443 12.1989C121.043 12.5322 120.723 12.9589 120.483 13.4789C120.243 13.9855 120.123 14.5789 120.123 15.2589C120.123 15.9655 120.243 16.5722 120.483 17.0789C120.736 17.5855 121.063 18.0055 121.463 18.3389C121.863 18.6722 122.296 18.9255 122.763 19.0989C123.243 19.2589 123.709 19.3389 124.163 19.3389C124.563 19.3389 124.903 19.2989 125.183 19.2189C125.476 19.1389 125.723 19.0455 125.923 18.9389C126.136 18.8189 126.316 18.7122 126.463 18.6189C126.609 18.5255 126.756 18.4389 126.903 18.3589C127.063 18.2789 127.223 18.2389 127.383 18.2389C127.569 18.2389 127.756 18.3122 127.943 18.4589C128.143 18.6055 128.343 18.8389 128.543 19.1589C128.663 19.3322 128.756 19.5055 128.823 19.6789C128.889 19.8389 128.916 19.9989 128.903 20.1589C128.903 20.4389 128.796 20.6722 128.583 20.8589C128.369 21.0322 128.143 21.1922 127.903 21.3389C127.796 21.3922 127.589 21.5122 127.283 21.6989C126.976 21.8722 126.569 22.0322 126.063 22.1789C125.556 22.3389 124.949 22.4189 124.243 22.4189ZM132.114 22.2589C131.634 22.2589 131.287 22.1922 131.074 22.0589C130.861 21.9122 130.727 21.7189 130.674 21.4789C130.634 21.2389 130.614 20.9922 130.614 20.7389V9.79886C130.614 9.53219 130.634 9.28552 130.674 9.05886C130.727 8.83219 130.861 8.64552 131.074 8.49886C131.287 8.35219 131.641 8.27886 132.134 8.27886C132.641 8.27886 132.994 8.35219 133.194 8.49886C133.407 8.64552 133.534 8.83219 133.574 9.05886C133.627 9.28552 133.654 9.53886 133.654 9.81886V20.7589C133.654 21.0122 133.627 21.2589 133.574 21.4989C133.521 21.7255 133.387 21.9122 133.174 22.0589C132.974 22.1922 132.621 22.2589 132.114 22.2589ZM148.173 20.1389C148.333 20.4722 148.42 20.7589 148.433 20.9989C148.447 21.2255 148.373 21.4322 148.213 21.6189C148.067 21.7922 147.82 21.9655 147.473 22.1389C146.94 22.3922 146.527 22.4655 146.233 22.3589C145.94 22.2655 145.667 21.9522 145.413 21.4189L141.493 13.2189L137.593 21.4189C137.327 21.9389 137.047 22.2455 136.753 22.3389C136.473 22.4455 136.067 22.3722 135.533 22.1189C135.187 21.9589 134.933 21.7922 134.773 21.6189C134.627 21.4322 134.56 21.2189 134.573 20.9789C134.587 20.7255 134.68 20.4322 134.853 20.0989L140.113 9.15886C140.247 8.89219 140.44 8.67886 140.693 8.51886C140.96 8.35886 141.233 8.27886 141.513 8.27886C141.713 8.27886 141.9 8.31886 142.073 8.39886C142.247 8.46552 142.4 8.56552 142.533 8.69886C142.68 8.83219 142.8 8.99219 142.893 9.17886L148.173 20.1389ZM138.133 18.9989L139.373 16.4189H143.633L144.873 18.9989H138.133ZM154.413 22.4589C153.706 22.4589 153.086 22.3722 152.553 22.1989C152.033 22.0255 151.586 21.8189 151.213 21.5789C150.853 21.3255 150.566 21.0789 150.353 20.8389C150.14 20.5989 149.993 20.4189 149.913 20.2989C149.686 20.0055 149.546 19.7522 149.493 19.5389C149.44 19.3122 149.466 19.0855 149.573 18.8589C149.693 18.6322 149.893 18.3855 150.173 18.1189C150.453 17.8789 150.713 17.7522 150.953 17.7389C151.206 17.7122 151.453 17.7722 151.693 17.9189C151.933 18.0655 152.166 18.2722 152.393 18.5389C152.713 18.9255 153.026 19.1989 153.333 19.3589C153.653 19.5055 153.986 19.5789 154.333 19.5789C154.773 19.5789 155.146 19.5255 155.453 19.4189C155.76 19.3122 155.993 19.1455 156.153 18.9189C156.313 18.6789 156.393 18.3789 156.393 18.0189C156.393 17.7255 156.28 17.4922 156.053 17.3189C155.84 17.1322 155.546 16.9722 155.173 16.8389C154.813 16.7055 154.406 16.5789 153.953 16.4589C153.513 16.3255 153.073 16.1722 152.633 15.9989C152.326 15.8922 152.033 15.7589 151.753 15.5989C151.473 15.4389 151.206 15.2589 150.953 15.0589C150.7 14.8589 150.48 14.6189 150.293 14.3389C150.12 14.0589 149.98 13.7389 149.873 13.3789C149.78 13.0189 149.733 12.6055 149.733 12.1389C149.733 11.3522 149.926 10.6522 150.313 10.0389C150.7 9.42552 151.233 8.94552 151.913 8.59886C152.606 8.23886 153.4 8.05886 154.293 8.05886C154.893 8.05886 155.413 8.11219 155.853 8.21886C156.306 8.32552 156.686 8.45219 156.993 8.59886C157.3 8.74552 157.54 8.89219 157.713 9.03886C157.9 9.17219 158.026 9.27886 158.093 9.35886C158.466 9.70552 158.673 10.0055 158.713 10.2589C158.753 10.4989 158.613 10.8389 158.293 11.2789C157.96 11.7455 157.626 12.0055 157.293 12.0589C156.973 12.1122 156.606 11.9989 156.193 11.7189C156.033 11.5722 155.873 11.4389 155.713 11.3189C155.553 11.1989 155.36 11.1055 155.133 11.0389C154.92 10.9589 154.633 10.9189 154.273 10.9189C154.06 10.9189 153.86 10.9522 153.673 11.0189C153.486 11.0722 153.326 11.1522 153.193 11.2589C153.06 11.3655 152.953 11.4989 152.873 11.6589C152.793 11.8055 152.753 11.9722 152.753 12.1589C152.753 12.4655 152.853 12.7122 153.053 12.8989C153.266 13.0855 153.54 13.2389 153.873 13.3589C154.22 13.4655 154.6 13.5722 155.013 13.6789C155.44 13.7722 155.873 13.8855 156.313 14.0189C156.713 14.1522 157.1 14.3189 157.473 14.5189C157.846 14.7055 158.18 14.9455 158.473 15.2389C158.766 15.5322 159 15.8989 159.173 16.3389C159.36 16.7789 159.453 17.3189 159.453 17.9589C159.453 18.7589 159.3 19.4455 158.993 20.0189C158.686 20.5922 158.28 21.0589 157.773 21.4189C157.266 21.7789 156.72 22.0389 156.133 22.1989C155.546 22.3722 154.973 22.4589 154.413 22.4589ZM60.32 46.2589C59.8533 46.2589 59.5133 46.1855 59.3 46.0389C59.1 45.8922 58.9667 45.7055 58.9 45.4789C58.8333 45.2389 58.8 44.9855 58.8 44.7189V33.7789C58.8 33.5255 58.8267 33.2855 58.88 33.0589C58.9333 32.8189 59.0667 32.6255 59.28 32.4789C59.4933 32.3322 59.8467 32.2655 60.34 32.2789H63.94C64.9 32.2789 65.7933 32.4522 66.62 32.7989C67.4467 33.1455 68.1733 33.6322 68.8 34.2589C69.4267 34.8855 69.9133 35.6189 70.26 36.4589C70.6067 37.2989 70.78 38.2122 70.78 39.1989C70.78 40.1989 70.6067 41.1322 70.26 41.9989C69.9133 42.8522 69.4267 43.5989 68.8 44.2389C68.1733 44.8655 67.44 45.3589 66.6 45.7189C65.7733 46.0789 64.8667 46.2589 63.88 46.2589H60.32ZM61.84 43.1989H63.94C64.66 43.1989 65.3067 43.0322 65.88 42.6989C66.4533 42.3522 66.9067 41.8855 67.24 41.2989C67.5733 40.7122 67.74 40.0389 67.74 39.2789C67.74 38.5189 67.5733 37.8389 67.24 37.2389C66.9067 36.6389 66.4533 36.1722 65.88 35.8389C65.3067 35.4922 64.6533 35.3189 63.92 35.3189H61.84V43.1989ZM79.0798 46.4589C78.1198 46.4589 77.2132 46.2789 76.3598 45.9189C75.5198 45.5455 74.7798 45.0389 74.1398 44.3989C73.5132 43.7455 73.0132 42.9922 72.6398 42.1389C72.2798 41.2855 72.0998 40.3655 72.0998 39.3789C72.0998 38.3789 72.2732 37.4455 72.6198 36.5789C72.9798 35.6989 73.4665 34.9255 74.0798 34.2589C74.7065 33.5922 75.4332 33.0722 76.2598 32.6989C77.0865 32.3255 77.9732 32.1389 78.9198 32.1389C79.8798 32.1389 80.7798 32.3255 81.6198 32.6989C82.4732 33.0589 83.2132 33.5655 83.8398 34.2189C84.4665 34.8722 84.9598 35.6322 85.3198 36.4989C85.6932 37.3655 85.8798 38.3055 85.8798 39.3189C85.8798 40.2922 85.6998 41.2122 85.3398 42.0789C84.9932 42.9322 84.5065 43.6922 83.8798 44.3589C83.2532 45.0122 82.5265 45.5255 81.6998 45.8989C80.8865 46.2722 80.0132 46.4589 79.0798 46.4589ZM78.9798 43.4189C79.5132 43.4189 80.0132 43.3122 80.4798 43.0989C80.9465 42.8855 81.3532 42.5989 81.6998 42.2389C82.0598 41.8655 82.3332 41.4322 82.5198 40.9389C82.7198 40.4322 82.8198 39.8855 82.8198 39.2989C82.8198 38.7389 82.7198 38.2122 82.5198 37.7189C82.3198 37.2122 82.0398 36.7722 81.6798 36.3989C81.3332 36.0122 80.9265 35.7122 80.4598 35.4989C80.0065 35.2855 79.5132 35.1789 78.9798 35.1789C78.4598 35.1789 77.9665 35.2855 77.4998 35.4989C77.0465 35.7122 76.6398 36.0122 76.2798 36.3989C75.9332 36.7722 75.6532 37.2122 75.4398 37.7189C75.2398 38.2122 75.1398 38.7455 75.1398 39.3189C75.1398 39.8789 75.2398 40.4122 75.4398 40.9189C75.6532 41.4122 75.9332 41.8455 76.2798 42.2189C76.6398 42.5922 77.0465 42.8855 77.4998 43.0989C77.9532 43.3122 78.4465 43.4189 78.9798 43.4189ZM94.1963 46.2589C93.7163 46.2589 93.3696 46.1855 93.1563 46.0389C92.9563 45.8922 92.8296 45.7055 92.7763 45.4789C92.7229 45.2389 92.6963 44.9855 92.6963 44.7189V33.7789C92.6963 33.5255 92.7229 33.2922 92.7763 33.0789C92.8296 32.8522 92.9629 32.6655 93.1763 32.5189C93.3896 32.3722 93.7429 32.2989 94.2363 32.2989C94.5696 32.2989 94.8229 32.3189 94.9963 32.3589C95.1696 32.3989 95.2963 32.4589 95.3763 32.5389C95.4563 32.6055 95.5429 32.6855 95.6363 32.7789L100.136 38.8589H99.8363L104.356 32.7789C104.463 32.6455 104.57 32.5455 104.676 32.4789C104.783 32.4122 104.916 32.3655 105.076 32.3389C105.25 32.3122 105.49 32.2989 105.796 32.2989C106.276 32.2989 106.623 32.3722 106.836 32.5189C107.05 32.6655 107.183 32.8589 107.236 33.0989C107.29 33.3255 107.316 33.5655 107.316 33.8189V44.7589C107.316 45.0122 107.29 45.2522 107.236 45.4789C107.183 45.7055 107.05 45.8922 106.836 46.0389C106.623 46.1855 106.27 46.2589 105.776 46.2589C105.296 46.2589 104.95 46.1855 104.736 46.0389C104.523 45.8922 104.39 45.6989 104.336 45.4589C104.283 45.2189 104.256 44.9722 104.256 44.7189V37.5789L101.276 41.7989C101.223 41.8655 101.15 41.9589 101.056 42.0789C100.963 42.1855 100.83 42.2789 100.656 42.3589C100.496 42.4389 100.276 42.4789 99.9963 42.4789C99.7029 42.4789 99.4696 42.4389 99.2963 42.3589C99.1363 42.2789 99.0096 42.1855 98.9163 42.0789C98.8229 41.9722 98.7429 41.8789 98.6763 41.7989L95.7163 37.5989V44.7589C95.7163 45.0122 95.6896 45.2522 95.6363 45.4789C95.5829 45.7055 95.4496 45.8922 95.2363 46.0389C95.0363 46.1855 94.6896 46.2589 94.1963 46.2589ZM115.385 46.4389C114.412 46.4389 113.552 46.2522 112.805 45.8789C112.072 45.4922 111.445 44.9855 110.925 44.3589C110.419 43.7189 110.039 43.0055 109.785 42.2189C109.532 41.4189 109.405 40.6055 109.405 39.7789V33.7989C109.405 33.5322 109.425 33.2855 109.465 33.0589C109.519 32.8189 109.652 32.6255 109.865 32.4789C110.079 32.3322 110.432 32.2589 110.925 32.2589C111.432 32.2589 111.792 32.3322 112.005 32.4789C112.219 32.6255 112.345 32.8189 112.385 33.0589C112.439 33.2855 112.465 33.5389 112.465 33.8189V39.7789C112.465 40.3655 112.559 40.9322 112.745 41.4789C112.945 42.0255 113.265 42.4789 113.705 42.8389C114.145 43.1989 114.725 43.3789 115.445 43.3789C116.059 43.3789 116.585 43.2322 117.025 42.9389C117.465 42.6322 117.805 42.2122 118.045 41.6789C118.285 41.1322 118.405 40.4922 118.405 39.7589V33.6789C118.405 33.4389 118.432 33.2122 118.485 32.9989C118.539 32.7855 118.672 32.6122 118.885 32.4789C119.099 32.3322 119.452 32.2589 119.945 32.2589C120.439 32.2589 120.785 32.3389 120.985 32.4989C121.199 32.6455 121.325 32.8322 121.365 33.0589C121.419 33.2855 121.445 33.5389 121.445 33.8189V39.8189C121.445 40.6589 121.312 41.4722 121.045 42.2589C120.792 43.0455 120.405 43.7522 119.885 44.3789C119.379 45.0055 118.745 45.5055 117.985 45.8789C117.239 46.2522 116.372 46.4389 115.385 46.4389ZM125.015 46.2589C124.548 46.2589 124.208 46.1855 123.995 46.0389C123.782 45.8922 123.648 45.7055 123.595 45.4789C123.542 45.2389 123.515 44.9855 123.515 44.7189V33.7389C123.515 33.4855 123.542 33.2522 123.595 33.0389C123.648 32.8255 123.782 32.6522 123.995 32.5189C124.222 32.3722 124.582 32.2989 125.075 32.2989C125.555 32.2989 125.888 32.3589 126.075 32.4789C126.262 32.5855 126.428 32.7389 126.575 32.9389L132.415 40.9589V33.7389C132.415 33.4855 132.442 33.2522 132.495 33.0389C132.562 32.8255 132.702 32.6522 132.915 32.5189C133.128 32.3722 133.475 32.2989 133.955 32.2989C134.448 32.2989 134.795 32.3722 134.995 32.5189C135.208 32.6655 135.335 32.8589 135.375 33.0989C135.428 33.3255 135.455 33.5655 135.455 33.8189V44.7389C135.455 44.9922 135.428 45.2389 135.375 45.4789C135.322 45.7055 135.188 45.8922 134.975 46.0389C134.762 46.1855 134.408 46.2589 133.915 46.2589C133.542 46.2589 133.248 46.2255 133.035 46.1589C132.835 46.0922 132.662 45.9655 132.515 45.7789L126.555 37.6989V44.7389C126.555 44.9922 126.528 45.2389 126.475 45.4789C126.422 45.7055 126.288 45.8922 126.075 46.0389C125.862 46.1855 125.508 46.2589 125.015 46.2589ZM139.087 46.2589C138.621 46.2589 138.281 46.1855 138.067 46.0389C137.867 45.8922 137.734 45.7055 137.667 45.4789C137.601 45.2389 137.567 44.9855 137.567 44.7189V33.7789C137.567 33.5255 137.594 33.2855 137.647 33.0589C137.701 32.8189 137.834 32.6255 138.047 32.4789C138.261 32.3322 138.614 32.2655 139.107 32.2789H142.707C143.667 32.2789 144.561 32.4522 145.387 32.7989C146.214 33.1455 146.941 33.6322 147.567 34.2589C148.194 34.8855 148.681 35.6189 149.027 36.4589C149.374 37.2989 149.547 38.2122 149.547 39.1989C149.547 40.1989 149.374 41.1322 149.027 41.9989C148.681 42.8522 148.194 43.5989 147.567 44.2389C146.941 44.8655 146.207 45.3589 145.367 45.7189C144.541 46.0789 143.634 46.2589 142.647 46.2589H139.087ZM140.607 43.1989H142.707C143.427 43.1989 144.074 43.0322 144.647 42.6989C145.221 42.3522 145.674 41.8855 146.007 41.2989C146.341 40.7122 146.507 40.0389 146.507 39.2789C146.507 38.5189 146.341 37.8389 146.007 37.2389C145.674 36.6389 145.221 36.1722 144.647 35.8389C144.074 35.4922 143.421 35.3189 142.687 35.3189H140.607V43.1989ZM157.847 46.4589C156.887 46.4589 155.98 46.2789 155.127 45.9189C154.287 45.5455 153.547 45.0389 152.907 44.3989C152.28 43.7455 151.78 42.9922 151.407 42.1389C151.047 41.2855 150.867 40.3655 150.867 39.3789C150.867 38.3789 151.04 37.4455 151.387 36.5789C151.747 35.6989 152.234 34.9255 152.847 34.2589C153.474 33.5922 154.2 33.0722 155.027 32.6989C155.854 32.3255 156.74 32.1389 157.687 32.1389C158.647 32.1389 159.547 32.3255 160.387 32.6989C161.24 33.0589 161.98 33.5655 162.607 34.2189C163.234 34.8722 163.727 35.6322 164.087 36.4989C164.46 37.3655 164.647 38.3055 164.647 39.3189C164.647 40.2922 164.467 41.2122 164.107 42.0789C163.76 42.9322 163.274 43.6922 162.647 44.3589C162.02 45.0122 161.294 45.5255 160.467 45.8989C159.654 46.2722 158.78 46.4589 157.847 46.4589ZM157.747 43.4189C158.28 43.4189 158.78 43.3122 159.247 43.0989C159.714 42.8855 160.12 42.5989 160.467 42.2389C160.827 41.8655 161.1 41.4322 161.287 40.9389C161.487 40.4322 161.587 39.8855 161.587 39.2989C161.587 38.7389 161.487 38.2122 161.287 37.7189C161.087 37.2122 160.807 36.7722 160.447 36.3989C160.1 36.0122 159.694 35.7122 159.227 35.4989C158.774 35.2855 158.28 35.1789 157.747 35.1789C157.227 35.1789 156.734 35.2855 156.267 35.4989C155.814 35.7122 155.407 36.0122 155.047 36.3989C154.7 36.7722 154.42 37.2122 154.207 37.7189C154.007 38.2122 153.907 38.7455 153.907 39.3189C153.907 39.8789 154.007 40.4122 154.207 40.9189C154.42 41.4122 154.7 41.8455 155.047 42.2189C155.407 42.5922 155.814 42.8855 156.267 43.0989C156.72 43.3122 157.214 43.4189 157.747 43.4189Z" fill="white"/>
<path d="M38.4469 4.42783L31 4.01265L32.5669 0L38.4469 4.42783Z" fill="white"/>
<mask id="path-3-inside-1_758_941" fill="white">
<path d="M33.1892 2.66567C33.2871 2.33415 33.0979 1.98522 32.7641 1.89528C28.0598 0.627741 23.0894 0.70652 18.4209 2.12919C13.5526 3.61275 9.22679 6.49243 5.97968 10.4113C2.73256 14.3301 0.706942 19.1157 0.153944 24.1749C-0.399054 29.234 0.544883 34.3442 2.86874 38.872C5.19259 43.3998 8.79417 47.146 13.227 49.6462C17.6598 52.1464 22.7289 53.2907 27.8059 52.9372C32.8829 52.5837 37.7446 50.748 41.7881 47.6576C45.6657 44.694 48.6275 40.7016 50.3403 36.1405C50.4618 35.8169 50.2887 35.4597 49.9622 35.346C49.6358 35.2323 49.2797 35.4052 49.1578 35.7286C47.5259 40.0584 44.7109 43.8482 41.028 46.663C37.1791 49.6046 32.5515 51.3519 27.719 51.6884C22.8864 52.0249 18.0614 50.9357 13.842 48.5558C9.62258 46.176 6.19441 42.6102 3.98244 38.3004C1.77048 33.9906 0.871986 29.1265 1.39836 24.3109C1.92473 19.4953 3.85282 14.9401 6.9436 11.21C10.0344 7.47981 14.1519 4.73878 18.7858 3.32665C23.2199 1.97541 27.9402 1.89782 32.4093 3.09618C32.7432 3.18571 33.0912 2.99718 33.1892 2.66567Z"/>
</mask>
<path d="M33.1892 2.66567C33.2871 2.33415 33.0979 1.98522 32.7641 1.89528C28.0598 0.627741 23.0894 0.70652 18.4209 2.12919C13.5526 3.61275 9.22679 6.49243 5.97968 10.4113C2.73256 14.3301 0.706942 19.1157 0.153944 24.1749C-0.399054 29.234 0.544883 34.3442 2.86874 38.872C5.19259 43.3998 8.79417 47.146 13.227 49.6462C17.6598 52.1464 22.7289 53.2907 27.8059 52.9372C32.8829 52.5837 37.7446 50.748 41.7881 47.6576C45.6657 44.694 48.6275 40.7016 50.3403 36.1405C50.4618 35.8169 50.2887 35.4597 49.9622 35.346C49.6358 35.2323 49.2797 35.4052 49.1578 35.7286C47.5259 40.0584 44.7109 43.8482 41.028 46.663C37.1791 49.6046 32.5515 51.3519 27.719 51.6884C22.8864 52.0249 18.0614 50.9357 13.842 48.5558C9.62258 46.176 6.19441 42.6102 3.98244 38.3004C1.77048 33.9906 0.871986 29.1265 1.39836 24.3109C1.92473 19.4953 3.85282 14.9401 6.9436 11.21C10.0344 7.47981 14.1519 4.73878 18.7858 3.32665C23.2199 1.97541 27.9402 1.89782 32.4093 3.09618C32.7432 3.18571 33.0912 2.99718 33.1892 2.66567Z" stroke="white" stroke-width="4" mask="url(#path-3-inside-1_758_941)"/>
<mask id="path-4-inside-2_758_941" fill="white">
<path d="M19.7747 46.766C19.6637 47.1186 19.8593 47.4956 20.2152 47.5955C24.0303 48.6671 28.0728 48.659 31.8907 47.5654C35.9234 46.4102 39.5275 44.0949 42.2546 40.9075C44.9817 37.7201 46.7116 33.8012 47.2289 29.6384C47.7463 25.4755 47.0283 21.2525 45.1643 17.4945C43.3004 13.7365 40.3727 10.6094 36.7454 8.50231C33.1182 6.3952 28.9515 5.40101 24.7636 5.64341C20.5758 5.88582 16.5516 7.35413 13.1917 9.86569C10.0107 12.2435 7.55808 15.457 6.10264 19.1428C5.96685 19.4866 6.14859 19.8705 6.49652 19.9954C6.84445 20.1204 7.22675 19.9391 7.36325 19.5956C8.72948 16.1568 11.0226 13.1586 13.9932 10.938C17.1429 8.5836 20.9152 7.20718 24.841 6.97994C28.7668 6.7527 32.6727 7.68467 36.073 9.65993C39.4732 11.6352 42.2177 14.5665 43.965 18.0893C45.7123 21.6122 46.3853 25.571 45.9004 29.4733C45.4154 33.3756 43.7938 37.0492 41.2374 40.0372C38.6809 43.0251 35.3024 45.1955 31.5221 46.2784C27.9565 47.2997 24.182 47.3111 20.6175 46.3179C20.2614 46.2187 19.8858 46.4134 19.7747 46.766Z"/>
</mask>
<path d="M19.7747 46.766C19.6637 47.1186 19.8593 47.4956 20.2152 47.5955C24.0303 48.6671 28.0728 48.659 31.8907 47.5654C35.9234 46.4102 39.5275 44.0949 42.2546 40.9075C44.9817 37.7201 46.7116 33.8012 47.2289 29.6384C47.7463 25.4755 47.0283 21.2525 45.1643 17.4945C43.3004 13.7365 40.3727 10.6094 36.7454 8.50231C33.1182 6.3952 28.9515 5.40101 24.7636 5.64341C20.5758 5.88582 16.5516 7.35413 13.1917 9.86569C10.0107 12.2435 7.55808 15.457 6.10264 19.1428C5.96685 19.4866 6.14859 19.8705 6.49652 19.9954C6.84445 20.1204 7.22675 19.9391 7.36325 19.5956C8.72948 16.1568 11.0226 13.1586 13.9932 10.938C17.1429 8.5836 20.9152 7.20718 24.841 6.97994C28.7668 6.7527 32.6727 7.68467 36.073 9.65993C39.4732 11.6352 42.2177 14.5665 43.965 18.0893C45.7123 21.6122 46.3853 25.571 45.9004 29.4733C45.4154 33.3756 43.7938 37.0492 41.2374 40.0372C38.6809 43.0251 35.3024 45.1955 31.5221 46.2784C27.9565 47.2997 24.182 47.3111 20.6175 46.3179C20.2614 46.2187 19.8858 46.4134 19.7747 46.766Z" stroke="white" stroke-width="4" mask="url(#path-4-inside-2_758_941)"/>
<path d="M5.0034 25.619L4.91855 18.427L9.02459 19.6555L5.0034 25.619Z" fill="white"/>
<path d="M25.5 42C21.642 42 18.0049 40.4876 15.2586 37.7414C12.5124 34.9951 11 31.358 11 27.5C11 25.5388 11.3895 23.6339 12.1577 21.8382C12.2965 21.5137 12.6217 21.3084 12.9741 21.3235C13.3267 21.3382 13.6336 21.5693 13.745 21.9041L14.4922 24.15L15.8846 25.0783L16.1584 22.3185C16.1873 22.0281 16.363 21.7728 16.624 21.6424L19.7544 20.0777L20.505 18.4254C20.5961 18.225 20.7612 18.0678 20.9658 17.9868L22.3699 17.4309L19.8529 15.5367C19.6088 15.3529 19.4821 15.0521 19.5212 14.7491C19.5603 14.446 19.7592 14.1872 20.0421 14.0715C21.7796 13.3605 23.6159 13 25.5 13C30.7246 13 35.5714 15.8477 38.1487 20.4318C38.2722 20.6514 38.2918 20.9146 38.2022 21.1502C38.1126 21.3858 37.923 21.5694 37.6848 21.6515L34.6817 22.6857C34.5479 22.7318 34.4048 22.7438 34.2653 22.7204L31.4525 22.2515C31.221 22.2128 31.0157 22.0801 30.8854 21.8848L30.3718 21.1147L27.14 22.8106L29.0948 23.275C29.3084 23.3257 29.494 23.4571 29.6128 23.6417L30.5706 25.1295L31.8545 24.8084C32.0867 24.7502 32.3327 24.7929 32.5319 24.9256L33.9383 25.863C34.1747 26.0206 34.3167 26.2859 34.3167 26.57V28.1131L36.8049 30.8075C36.9498 30.9644 37.0303 31.1703 37.0303 31.3839V35.9758C37.0303 36.168 36.9651 36.3546 36.8454 36.505C35.514 38.1774 33.802 39.5605 31.8947 40.505C29.8914 41.497 27.7399 42 25.5 42Z" fill="url(#paint0_linear_758_941)"/>
<path d="M38.1488 20.4314C37.9476 20.0738 37.5196 19.9111 37.1317 20.0447L34.3324 21.0088L32.0951 20.6357L31.3613 19.5354C31.1201 19.1737 30.6447 19.0525 30.2597 19.2545L24.3413 22.3601C24.0276 22.5248 23.8489 22.8668 23.8931 23.2184C23.9373 23.5699 24.195 23.8572 24.5397 23.9391L28.3694 24.8489L29.4716 26.5612C29.6687 26.8674 30.0389 27.014 30.3922 26.9256L31.9024 26.5478L32.6176 27.0245V28.4451C32.6176 28.6588 32.6981 28.8646 32.8431 29.0215L35.3313 31.7159V35.9755C35.3313 36.3367 35.5596 36.6584 35.9006 36.7776C35.9924 36.8097 36.087 36.8252 36.1807 36.8252C36.4346 36.8252 36.6811 36.7112 36.8455 36.5048C37.846 35.2484 38.6254 33.8496 39.1622 32.3473C39.7183 30.7914 40.0002 29.1605 40.0002 27.4998C40.0002 25.0283 39.36 22.5841 38.1488 20.4314ZM25.1956 28.9516L22.5424 28.4208L20.3028 25.9575C20.1391 25.7775 19.9062 25.6769 19.6629 25.6795L17.5299 25.7077L17.8033 22.9526L20.7835 21.4629C20.9577 21.3759 21.0966 21.2316 21.1772 21.0544L21.9105 19.4403L24.4043 18.453C24.69 18.3399 24.8924 18.0812 24.9335 17.7767C24.9747 17.4721 24.848 17.169 24.6025 16.9843L20.8749 14.1789C20.6356 13.9987 20.3192 13.9579 20.042 14.0715C16.5248 15.512 13.6511 18.343 12.1577 21.8384C12.0761 22.0293 12.0673 22.2435 12.1328 22.4405L12.9722 24.9632C13.0319 25.1427 13.1498 25.297 13.3071 25.4019L15.741 27.0245V28.8473C15.741 29.0686 15.8272 29.2811 15.9815 29.4397L18.0853 31.6029V34.0039C18.0853 34.2026 18.155 34.3951 18.2823 34.5477L20.6261 37.3605C20.7907 37.5581 21.0316 37.6663 21.2789 37.6663C21.3757 37.6663 21.4734 37.6497 21.5679 37.6155C21.9043 37.4937 22.1283 37.1743 22.1283 36.8167V34.8977L23.6638 33.7462C23.8778 33.5857 24.0037 33.3339 24.0037 33.0665V32.0119L25.6297 30.3854C25.8512 30.1638 25.9328 29.8384 25.842 29.5385C25.7513 29.2386 25.5028 29.0131 25.1956 28.9516Z" fill="url(#paint1_linear_758_941)"/>
<defs>
<linearGradient id="paint0_linear_758_941" x1="24.6289" y1="42" x2="24.6289" y2="13" gradientUnits="userSpaceOnUse">
<stop stop-color="#C55A0A"/>
<stop offset="1" stop-color="#FF9312"/>
</linearGradient>
<linearGradient id="paint1_linear_758_941" x1="26.0448" y1="37.6663" x2="26.0448" y2="14.008" gradientUnits="userSpaceOnUse">
<stop stop-color="#ADDCFF"/>
<stop offset="0.5028" stop-color="#EAF6FF"/>
<stop offset="1" stop-color="#EAF6FF"/>
</linearGradient>
</defs>
</svg>
