<svg width="559" height="167" viewBox="0 0 559 167" fill="none" xmlns="http://www.w3.org/2000/svg">
<path d="M90.024 91.7838C90.0802 91.7667 90.1372 91.7538 90.1921 91.7308C90.2549 91.7043 90.3123 91.6684 90.3714 91.6356C90.4125 91.6121 90.4554 91.5939 90.495 91.5674C90.5928 91.5015 90.684 91.4262 90.7667 91.3425C115.372 66.4659 115.543 26.1636 91.1473 1.50179C90.4858 0.832626 89.3051 0.832626 88.6439 1.50179C79.0411 11.2092 72.9233 23.461 70.9515 36.9331C70.8108 37.8956 71.4764 38.7896 72.4386 38.9308C73.4018 39.067 74.2953 38.4056 74.4358 37.4433C76.2107 25.3158 81.5442 14.2342 89.895 5.28201C110.732 27.6618 111.083 62.5924 91.0865 85.7844C88.699 53.0409 61.4393 26.8154 28.4002 26.475C28.3941 26.4743 28.388 26.4743 28.3819 26.4743C27.9184 26.4743 27.4731 26.6576 27.1433 26.9838C26.8094 27.3148 26.6213 27.7655 26.6213 28.2353V34.215C26.6213 34.2743 26.6242 34.3339 26.6302 34.3935C27.721 45.1067 31.565 55.4366 37.7458 64.2678C38.3036 65.0655 39.4023 65.2603 40.1978 64.7006C40.9945 64.1431 41.1884 63.0456 40.6311 62.2489C34.8108 53.9335 31.1851 44.2097 30.1427 34.1248V30.0409C61.8975 31.3183 87.5764 57.9006 87.7516 90.1165C87.7523 90.2323 87.7649 90.3479 87.7881 90.4619C87.7975 90.5081 87.8156 90.5507 87.8285 90.595C87.8472 90.6607 87.8632 90.7263 87.8897 90.7897C87.9129 90.8445 87.9448 90.894 87.9731 90.9458C87.9996 90.9946 88.0212 91.0447 88.0526 91.0909C88.1173 91.1871 88.1909 91.2764 88.2728 91.3575C88.2732 91.3582 88.2735 91.3585 88.2739 91.3589C88.285 91.3697 88.2981 91.3767 88.3093 91.3875C88.3816 91.4558 88.4578 91.5198 88.5408 91.5749C88.583 91.6032 88.6289 91.6222 88.673 91.6461C88.729 91.6771 88.7832 91.7106 88.8427 91.735C88.899 91.758 88.9574 91.7716 89.0153 91.7885C89.0667 91.8039 89.1161 91.8232 89.1696 91.8339C89.2805 91.8557 89.3928 91.8672 89.5053 91.8677C89.5077 91.8677 89.5098 91.8684 89.5119 91.8684H89.522C89.5543 91.8684 89.5843 91.86 89.6162 91.8583C89.699 91.8534 89.7815 91.8482 89.8631 91.8318C89.9187 91.8206 89.9703 91.8002 90.024 91.7838Z" fill="#EE1C89" stroke="#EE1C89" stroke-width="2"/>
<path d="M88.0526 91.0911C88.0211 91.0449 87.9996 90.9947 87.9731 90.9459C87.9447 90.8939 87.9128 90.8446 87.8898 90.7898C87.8633 90.7265 87.8474 90.6608 87.8284 90.5952C87.8155 90.5509 87.7977 90.5082 87.7881 90.462C87.7649 90.348 87.7522 90.2325 87.7515 90.1166C87.744 88.7124 87.6706 87.3235 87.5677 85.942C76.0697 75.9941 61.5378 70.5274 46.1735 70.4934C46.1245 70.4934 46.0778 70.4927 46.0288 70.4927C29.2773 70.4927 13.4767 76.9345 1.5285 88.6386C1.19275 88.968 1.00261 89.4175 1.00003 89.8873C0.997447 90.3581 1.18314 90.8095 1.5156 91.1419L5.74412 95.3704C5.78632 95.4126 5.83087 95.4523 5.87659 95.4903C17.1427 104.673 31.3708 109.726 45.9587 109.726H46.0736C57.472 109.717 68.6464 106.656 78.3967 100.872C79.233 100.376 79.5085 99.2953 79.0124 98.4592C78.5168 97.6224 77.4371 97.3465 76.5998 97.8431C67.3988 103.302 56.8539 106.191 46.0952 106.204H46.0886H45.9444C45.9367 106.204 45.9297 106.204 45.9222 106.204C32.1858 106.196 18.7891 101.445 8.17079 92.8162L5.282 89.9281C16.4034 79.6498 30.7989 74.0148 46.0288 74.0148H46.1658C62.048 74.0499 77.0024 80.2095 88.2739 91.359C88.2734 91.3586 88.2732 91.3583 88.2727 91.3576C88.1909 91.2765 88.1173 91.1872 88.0526 91.0911Z" fill="white" stroke="white" stroke-width="2"/>
<path d="M178.495 88.8489C168.787 79.2468 156.535 73.129 143.064 71.1565C142.099 71.0174 141.207 71.6817 141.066 72.6439C140.925 73.6061 141.591 74.5004 142.553 74.6415C154.681 76.4169 165.763 81.7495 174.715 90.1007C163.559 100.494 148.954 106.198 133.384 106.2H133.378C118.624 106.2 104.745 101.063 93.8393 91.6815C109.083 90.5704 123.365 84.0544 134.437 73.038C146.564 60.9705 153.294 45.0572 153.385 28.2287C153.387 27.7588 153.202 27.3065 152.869 26.9743C152.536 26.6419 152.106 26.4698 151.615 26.4583C138.244 26.5314 125.474 30.7076 114.685 38.5359C113.898 39.1068 113.723 40.208 114.294 40.9949C114.865 41.7829 115.966 41.9562 116.753 41.386C126.455 34.3467 137.855 30.434 149.827 30.0162C149.287 45.2384 142.981 59.5685 131.952 70.5417C121.511 80.9321 108.053 87.083 93.6914 88.1547C92.7533 89.2396 91.789 90.3087 90.7667 91.3422C90.6842 91.4261 90.593 91.5014 90.495 91.5673C90.4556 91.5938 90.4127 91.6121 90.3714 91.6353C90.3123 91.6683 90.2551 91.704 90.1921 91.7307C90.1372 91.7535 90.0802 91.7664 90.0239 91.7837C89.9705 91.8001 89.9187 91.8205 89.8631 91.8315C89.7817 91.8482 89.699 91.8531 89.6164 91.858C89.5846 91.8599 89.5543 91.8681 89.522 91.8681H89.5121C89.5098 91.8681 89.5077 91.8674 89.5053 91.8674C89.3928 91.8672 89.2805 91.8557 89.1696 91.8339C89.1163 91.8231 89.0669 91.8036 89.0153 91.7884C88.9576 91.7715 88.899 91.7579 88.8427 91.7349C88.7834 91.7106 88.729 91.6768 88.673 91.6461C88.6289 91.6222 88.5832 91.6029 88.5407 91.5748C88.4577 91.5197 88.3818 91.4555 88.3093 91.3875C88.2981 91.3767 88.2849 91.3694 88.2739 91.3586C100.245 103.201 116.262 109.721 133.378 109.721H133.385C150.502 109.72 166.522 103.196 178.495 91.3523C178.829 91.0219 179.017 90.5706 179.017 90.1007C179.017 89.6306 178.829 89.1793 178.495 88.8489Z" fill="white" stroke="white" stroke-width="2"/>
<path d="M7.18375 160.435C5.90624 159.878 4.93233 159.066 4.26146 158C3.5906 156.934 3.25488 155.647 3.25488 154.138V148.888C3.25488 147.379 3.5906 146.092 4.26146 145.026C4.93233 143.96 5.90624 143.147 7.18375 142.585C8.46071 142.023 9.99789 141.743 11.7948 141.743C13.2773 141.743 14.6033 142.001 15.7721 142.519C16.9409 143.037 17.9069 143.789 18.6701 144.776C19.4334 145.763 19.9606 146.954 20.2529 148.348H15.6425C15.469 147.717 15.2009 147.177 14.8387 146.73C14.476 146.282 14.0372 145.94 13.5235 145.704C13.0092 145.467 12.4329 145.348 11.7948 145.348C10.9611 145.348 10.2519 145.486 9.66781 145.763C9.08369 146.039 8.63701 146.443 8.32834 146.973C8.01966 147.504 7.86532 148.142 7.86532 148.888V154.138C7.86532 154.884 8.01966 155.52 8.32834 156.046C8.63701 156.573 9.08369 156.974 9.66781 157.25C10.2519 157.526 10.9611 157.665 11.7948 157.665C12.4437 157.665 13.0283 157.548 13.5477 157.316C14.0676 157.084 14.5058 156.744 14.8629 156.296C15.2201 155.849 15.4797 155.305 15.6425 154.664H20.2529C19.9499 156.059 19.417 157.25 18.6538 158.237C17.8906 159.224 16.9274 159.976 15.7636 160.494C14.6004 161.011 13.2773 161.27 11.7948 161.27C9.99789 161.27 8.46071 160.992 7.18375 160.435Z" fill="white"/>
<path d="M25.6261 157.176H40V160.625H25.6261V157.176ZM25.6261 149.466H38.1932V152.916H25.6261V149.466ZM25.6261 141.625H40V145.075H25.6261V141.625ZM24 141.625H28.501V160.625H24V141.625Z" fill="white"/>
<path d="M43.8582 141.941H49.2972L58.0804 156.599L57.6906 156.941V141.941H61.9439V161.06H56.4728L47.7222 146.625L48.112 146.283V161.06H43.8582V141.941Z" fill="white"/>
<path d="M71.315 143.18H75.6845V160.625H71.315V143.18ZM65 141.625H82V145.075H65V141.625Z" fill="white"/>
<path d="M91.8319 152.783L96.5887 152.177L102.953 161.073H97.5627L91.8319 152.783ZM86.8637 149.901H95.0786C95.5332 149.901 95.9337 149.809 96.2801 149.625C96.6265 149.44 96.894 149.177 97.0839 148.835C97.2731 148.494 97.3734 148.099 97.3841 147.651C97.3841 147.204 97.2889 146.809 97.1002 146.467C96.9104 146.125 96.6428 145.861 96.2964 145.677C95.95 145.493 95.5439 145.401 95.0786 145.401H86.8637V141.927H95.4357C96.7346 141.927 97.8764 142.164 98.8616 142.638C99.8462 143.111 100.609 143.781 101.151 144.645C101.691 145.509 101.962 146.511 101.962 147.651C101.962 148.792 101.691 149.794 101.151 150.658C100.609 151.522 99.8439 152.191 98.8531 152.665C97.8635 153.138 96.7239 153.375 95.4357 153.375H86.8637V149.901ZM85.0945 141.927H89.5427V161.073H85.0945V141.927Z" fill="white"/>
<path d="M116.363 157.251C116.969 156.974 117.437 156.582 117.767 156.073C118.097 155.564 118.262 154.976 118.262 154.31V148.704C118.262 148.038 118.097 147.45 117.767 146.941C117.437 146.432 116.969 146.04 116.363 145.763C115.757 145.487 115.053 145.349 114.252 145.349C113.452 145.349 112.748 145.487 112.142 145.763C111.536 146.04 111.068 146.432 110.738 146.941C110.408 147.45 110.243 148.038 110.243 148.704V154.31C110.243 154.976 110.408 155.564 110.738 156.073C111.068 156.582 111.536 156.974 112.142 157.251C112.748 157.527 113.452 157.665 114.252 157.665C115.053 157.665 115.757 157.527 116.363 157.251ZM109.731 160.395C108.427 159.812 107.418 158.987 106.703 157.921C105.989 156.856 105.632 155.621 105.632 154.217V148.796C105.632 147.393 105.989 146.158 106.703 145.092C107.418 144.026 108.427 143.202 109.731 142.618C111.036 142.035 112.542 141.743 114.252 141.743C115.963 141.743 117.469 142.035 118.774 142.618C120.078 143.202 121.087 144.026 121.802 145.092C122.516 146.158 122.873 147.393 122.873 148.796V154.217C122.873 155.621 122.516 156.856 121.802 157.921C121.087 158.987 120.078 159.812 118.774 160.395C117.469 160.979 115.963 161.271 114.252 161.271C112.542 161.271 111.036 160.979 109.731 160.395Z" fill="white"/>
<path d="M138.751 157.599H144.417C145.878 157.599 147.009 157.314 147.81 156.743C148.61 156.173 149.011 155.366 149.011 154.322V148.691C149.011 147.647 148.61 146.84 147.81 146.269C147.009 145.699 145.878 145.414 144.417 145.414H138.751V141.94H144.319C146.289 141.94 147.969 142.208 149.36 142.742C150.751 143.278 151.809 144.059 152.534 145.085C153.259 146.111 153.622 147.348 153.622 148.796V154.217C153.622 155.594 153.273 156.796 152.575 157.822C151.877 158.849 150.83 159.647 149.433 160.217C148.037 160.787 146.327 161.073 144.303 161.073H138.751V157.599ZM136.51 141.94H140.958V161.073H136.51V141.94Z" fill="white"/>
<path d="M159.626 157.176H174V160.625H159.626V157.176ZM159.626 149.466H172.193V152.916H159.626V149.466ZM159.626 141.625H174V145.075H159.626V141.625ZM158 141.625H162.501V160.625H158V141.625Z" fill="white"/>
<path d="M190.922 160.994C189.845 160.81 188.833 160.54 187.886 160.185C186.939 159.83 186.092 159.402 185.345 158.902L187.407 155.928C188.316 156.534 189.365 157.001 190.557 157.329C191.747 157.658 192.97 157.823 194.225 157.823C195.676 157.823 196.801 157.624 197.602 157.224C198.403 156.825 198.804 156.262 198.804 155.533V155.52C198.804 155.012 198.625 154.608 198.268 154.31C197.911 154.012 197.446 153.792 196.872 153.652C196.298 153.512 195.562 153.384 194.664 153.27C194.631 153.261 194.602 153.257 194.575 153.257C194.548 153.257 194.518 153.252 194.485 153.244L194.128 153.204C192.548 153.002 191.238 152.751 190.199 152.448C189.16 152.145 188.278 151.614 187.553 150.855C186.828 150.097 186.465 149.02 186.465 147.625V147.612C186.465 146.375 186.806 145.318 187.488 144.441C188.17 143.564 189.16 142.895 190.459 142.434C191.758 141.973 193.327 141.743 195.167 141.743C196.011 141.743 196.874 141.822 197.757 141.98C198.639 142.138 199.502 142.366 200.346 142.664C201.19 142.963 201.991 143.322 202.749 143.743L200.865 146.796C199.957 146.288 199.007 145.893 198.016 145.612C197.026 145.331 196.076 145.191 195.167 145.191C193.803 145.191 192.748 145.373 192.001 145.737C191.255 146.101 190.881 146.612 190.881 147.27V147.283C190.881 147.835 191.076 148.272 191.465 148.592C191.855 148.912 192.337 149.147 192.911 149.296C193.484 149.446 194.29 149.604 195.329 149.77C195.373 149.779 195.416 149.785 195.459 149.789C195.502 149.794 195.546 149.801 195.589 149.81C195.654 149.818 195.716 149.829 195.776 149.842C195.835 149.855 195.898 149.867 195.962 149.875C197.456 150.112 198.703 150.399 199.705 150.737C200.706 151.075 201.542 151.618 202.213 152.369C202.884 153.119 203.22 154.143 203.22 155.441V155.467C203.22 156.687 202.868 157.731 202.164 158.6C201.461 159.468 200.435 160.13 199.088 160.586C197.74 161.043 196.12 161.271 194.225 161.271C193.1 161.271 191.999 161.178 190.922 160.994Z" fill="white"/>
<path d="M208.626 157.176H223V160.625H208.626V157.176ZM208.626 149.466H221.193V152.916H208.626V149.466ZM208.626 141.625H223V145.075H208.626V141.625ZM207 141.625H211.501V160.625H207V141.625Z" fill="white"/>
<path d="M233.563 152.783L238.32 152.177L244.684 161.073H239.294L233.563 152.783ZM228.595 149.901H236.81C237.264 149.901 237.665 149.809 238.011 149.625C238.357 149.44 238.625 149.177 238.815 148.835C239.004 148.494 239.104 148.099 239.115 147.651C239.115 147.204 239.02 146.809 238.831 146.467C238.641 146.125 238.374 145.861 238.027 145.677C237.681 145.493 237.275 145.401 236.81 145.401H228.595V141.927H237.167C238.466 141.927 239.607 142.164 240.593 142.638C241.577 143.111 242.34 143.781 242.882 144.645C243.422 145.509 243.693 146.511 243.693 147.651C243.693 148.792 243.422 149.794 242.882 150.658C242.34 151.522 241.575 152.191 240.584 152.665C239.594 153.138 238.455 153.375 237.167 153.375H228.595V149.901ZM226.825 141.927H231.274V161.073H226.825V141.927Z" fill="white"/>
<path d="M245.901 141.94H250.479L255.496 154.704L260.512 141.94H265.091L257.233 161.073H253.759L245.901 141.94Z" fill="white"/>
<path d="M272 160.625H268V141.625H272V160.625Z" fill="white"/>
<path d="M286.765 160.27V163.507L283.421 163.481V160.27H286.765ZM281.959 166.388L282.64 164.349C283.214 164.472 283.782 164.533 284.345 164.533C284.8 164.533 285.154 164.492 285.408 164.408C285.664 164.325 285.79 164.208 285.79 164.06C285.79 163.875 285.584 163.732 285.174 163.632C284.762 163.531 284.177 163.481 283.421 163.481L284.994 161.888C286.413 161.888 287.512 162.094 288.291 162.507C289.07 162.919 289.459 163.498 289.459 164.244C289.459 164.998 289.04 165.584 288.202 166C287.362 166.417 286.174 166.625 284.638 166.625C283.577 166.625 282.684 166.547 281.959 166.388ZM280.611 160.434C279.334 159.877 278.36 159.066 277.689 158C277.018 156.934 276.683 155.647 276.683 154.138V148.888C276.683 147.379 277.018 146.092 277.689 145.026C278.36 143.96 279.334 143.146 280.611 142.585C281.888 142.023 283.426 141.743 285.222 141.743C286.706 141.743 288.031 142.001 289.199 142.519C290.369 143.036 291.335 143.789 292.097 144.776C292.861 145.763 293.389 146.954 293.68 148.348H289.07C288.897 147.717 288.629 147.177 288.266 146.73C287.903 146.282 287.465 145.94 286.951 145.704C286.437 145.466 285.861 145.348 285.222 145.348C284.388 145.348 283.68 145.486 283.096 145.763C282.51 146.039 282.065 146.443 281.756 146.973C281.447 147.504 281.293 148.142 281.293 148.888V154.138C281.293 154.883 281.447 155.519 281.756 156.046C282.065 156.573 282.51 156.974 283.096 157.25C283.68 157.526 284.388 157.665 285.222 157.665C285.871 157.665 286.456 157.548 286.976 157.316C287.495 157.084 287.933 156.743 288.291 156.296C288.647 155.849 288.908 155.305 289.07 154.664H293.68C293.378 156.059 292.844 157.25 292.082 158.237C291.318 159.224 290.355 159.976 289.192 160.494C288.028 161.011 286.706 161.27 285.222 161.27C283.426 161.27 281.888 160.992 280.611 160.434Z" fill="white"/>
<path d="M307.334 157.251C307.94 156.974 308.408 156.582 308.738 156.073C309.068 155.564 309.234 154.976 309.234 154.31V148.704C309.234 148.038 309.068 147.45 308.738 146.941C308.408 146.432 307.94 146.04 307.334 145.763C306.728 145.487 306.024 145.349 305.224 145.349C304.422 145.349 303.719 145.487 303.113 145.763C302.507 146.04 302.039 146.432 301.709 146.941C301.378 147.45 301.214 148.038 301.214 148.704V154.31C301.214 154.976 301.378 155.564 301.709 156.073C302.039 156.582 302.507 156.974 303.113 157.251C303.719 157.527 304.422 157.665 305.224 157.665C306.024 157.665 306.728 157.527 307.334 157.251ZM300.702 160.395C299.398 159.812 298.388 158.987 297.675 157.921C296.96 156.856 296.603 155.621 296.603 154.217V148.796C296.603 147.393 296.96 146.158 297.675 145.092C298.388 144.026 299.398 143.202 300.702 142.618C302.006 142.035 303.514 141.743 305.224 141.743C306.933 141.743 308.441 142.035 309.745 142.618C311.049 143.202 312.059 144.026 312.773 145.092C313.487 146.158 313.844 147.393 313.844 148.796V154.217C313.844 155.621 313.487 156.856 312.773 157.921C312.059 158.987 311.049 159.812 309.745 160.395C308.441 160.979 306.933 161.271 305.224 161.271C303.514 161.271 302.006 160.979 300.702 160.395Z" fill="white"/>
<path d="M322.018 160.994C320.941 160.81 319.929 160.54 318.982 160.185C318.035 159.83 317.189 159.402 316.442 158.902L318.503 155.928C319.413 156.534 320.462 157.001 321.653 157.329C322.844 157.658 324.066 157.823 325.322 157.823C326.772 157.823 327.898 157.624 328.699 157.224C329.5 156.825 329.9 156.262 329.9 155.533V155.52C329.9 155.012 329.722 154.608 329.365 154.31C329.008 154.012 328.542 153.792 327.968 153.652C327.395 153.512 326.659 153.384 325.761 153.27C325.728 153.261 325.698 153.257 325.671 153.257C325.644 153.257 325.614 153.252 325.582 153.244L325.225 153.204C323.645 153.002 322.335 152.751 321.296 152.448C320.257 152.145 319.375 151.614 318.65 150.855C317.924 150.097 317.562 149.02 317.562 147.625V147.612C317.562 146.375 317.902 145.318 318.585 144.441C319.266 143.564 320.257 142.895 321.556 142.434C322.854 141.973 324.424 141.743 326.264 141.743C327.108 141.743 327.971 141.822 328.853 141.98C329.735 142.138 330.598 142.366 331.443 142.664C332.286 142.963 333.087 143.322 333.846 143.743L331.962 146.796C331.053 146.288 330.104 145.893 329.113 145.612C328.123 145.331 327.173 145.191 326.264 145.191C324.9 145.191 323.845 145.373 323.098 145.737C322.351 146.101 321.978 146.612 321.978 147.27V147.283C321.978 147.835 322.172 148.272 322.562 148.592C322.952 148.912 323.433 149.147 324.007 149.296C324.581 149.446 325.387 149.604 326.426 149.77C326.469 149.779 326.513 149.785 326.556 149.789C326.599 149.794 326.642 149.801 326.686 149.81C326.75 149.818 326.813 149.829 326.873 149.842C326.932 149.855 326.994 149.867 327.059 149.875C328.553 150.112 329.8 150.399 330.802 150.737C331.803 151.075 332.638 151.618 333.31 152.369C333.981 153.119 334.316 154.143 334.316 155.441V155.467C334.316 156.687 333.964 157.731 333.261 158.6C332.557 159.468 331.532 160.13 330.184 160.586C328.837 161.043 327.216 161.271 325.322 161.271C324.196 161.271 323.095 161.178 322.018 160.994Z" fill="white"/>
<path d="M349.36 154.131H361.853V157.581H349.36V154.131ZM354.08 141.625H356.92L366 160.625H361.183L355.5 147.649L349.817 160.625H345L354.08 141.625Z" fill="white"/>
<path d="M377.777 157.251C378.383 156.974 378.851 156.582 379.181 156.073C379.511 155.564 379.677 154.976 379.677 154.31V148.704C379.677 148.038 379.511 147.45 379.181 146.941C378.851 146.432 378.383 146.04 377.777 145.763C377.171 145.487 376.467 145.349 375.667 145.349C374.865 145.349 374.162 145.487 373.556 145.763C372.95 146.04 372.482 146.432 372.152 146.941C371.821 147.45 371.657 148.038 371.657 148.704V154.31C371.657 154.976 371.821 155.564 372.152 156.073C372.482 156.582 372.95 156.974 373.556 157.251C374.162 157.527 374.865 157.665 375.667 157.665C376.467 157.665 377.171 157.527 377.777 157.251ZM371.145 160.395C369.841 159.812 368.831 158.987 368.118 157.921C367.403 156.856 367.046 155.621 367.046 154.217V148.796C367.046 147.393 367.403 146.158 368.118 145.092C368.831 144.026 369.841 143.202 371.145 142.618C372.449 142.035 373.957 141.743 375.667 141.743C377.376 141.743 378.884 142.035 380.188 142.618C381.492 143.202 382.502 144.026 383.216 145.092C383.93 146.158 384.287 147.393 384.287 148.796V154.217C384.287 155.621 383.93 156.856 383.216 157.921C382.502 158.987 381.492 159.812 380.188 160.395C378.884 160.979 377.376 161.271 375.667 161.271C373.957 161.271 372.449 160.979 371.145 160.395Z" fill="white"/>
<path d="M412.779 141.94H418.64V161.073H414.598V146.217L414.76 147.059L410.247 158.941H406.318L401.805 147.322L401.967 146.217V161.073H397.924V141.94H403.785L408.282 154.836L412.779 141.94Z" fill="white"/>
<path d="M428 160.625H424V141.625H428V160.625Z" fill="white"/>
<path d="M449.778 150.375V154.112C449.778 155.533 449.424 156.786 448.715 157.869C448.006 158.953 447.003 159.79 445.704 160.382C444.405 160.974 442.9 161.271 441.191 161.271C439.469 161.271 437.952 160.992 436.637 160.435C435.321 159.878 434.304 159.091 433.584 158.073C432.865 157.055 432.505 155.876 432.505 154.533V148.888C432.505 147.467 432.859 146.217 433.568 145.138C434.276 144.059 435.281 143.224 436.58 142.631C437.879 142.039 439.383 141.743 441.093 141.743C442.5 141.743 443.799 141.978 444.989 142.447C446.18 142.917 447.173 143.581 447.969 144.441C448.764 145.301 449.302 146.296 449.583 147.428H444.778C444.616 147.024 444.348 146.676 443.974 146.382C443.601 146.088 443.163 145.864 442.66 145.711C442.157 145.557 441.634 145.48 441.093 145.48C440.303 145.48 439.607 145.621 439.007 145.902C438.406 146.182 437.941 146.582 437.61 147.099C437.28 147.617 437.116 148.213 437.116 148.888V154.533C437.116 155.13 437.283 155.656 437.619 156.112C437.954 156.569 438.431 156.919 439.047 157.165C439.664 157.411 440.379 157.533 441.191 157.533C441.992 157.533 442.692 157.4 443.293 157.132C443.894 156.865 444.356 156.477 444.681 155.967C445.005 155.459 445.168 154.858 445.168 154.165V153.849H441.597V150.375H449.778Z" fill="white"/>
<path d="M460.899 152.783L465.656 152.177L472.02 161.073H466.631L460.899 152.783ZM455.932 149.901H464.147C464.601 149.901 465.001 149.809 465.347 149.625C465.694 149.44 465.962 149.177 466.151 148.835C466.341 148.494 466.441 148.099 466.451 147.651C466.451 147.204 466.357 146.809 466.168 146.467C465.978 146.125 465.71 145.861 465.364 145.677C465.018 145.493 464.612 145.401 464.147 145.401H455.932V141.927H464.504C465.803 141.927 466.944 142.164 467.929 142.638C468.914 143.111 469.677 143.781 470.218 144.645C470.759 145.509 471.03 146.511 471.03 147.651C471.03 148.792 470.759 149.794 470.218 150.658C469.677 151.522 468.912 152.191 467.921 152.665C466.931 153.138 465.792 153.375 464.504 153.375H455.932V149.901ZM454.162 141.927H458.61V161.073H454.162V141.927Z" fill="white"/>
<path d="M477.36 154.131H489.853V157.581H477.36V154.131ZM482.08 141.625H484.92L494 160.625H489.183L483.501 147.649L477.817 160.625H473L482.08 141.625Z" fill="white"/>
<path d="M496.551 141.941H501.99L510.773 156.599L510.384 156.941V141.941H514.637V161.06H509.166L500.415 146.625L500.805 146.283V161.06H496.551V141.941Z" fill="white"/>
<path d="M524.315 143.18H528.685V160.625H524.315V143.18ZM518 141.625H535V145.075H518V141.625Z" fill="white"/>
<path d="M539.627 157.176H554V160.625H539.627V157.176ZM539.627 149.466H552.193V152.916H539.627V149.466ZM539.627 141.625H554V145.075H539.627V141.625ZM538 141.625H542.501V160.625H538V141.625Z" fill="white"/>
<path d="M204.576 56.5228C204.576 21.5684 233.592 1.43323 266.185 1.43323C283.078 1.43323 296.592 7.55456 305.535 15.1251L289.239 30.2666C282.879 25.4341 276.122 23.018 266.98 23.018C249.888 23.018 236.175 35.2603 236.175 55.5563C236.175 76.4964 248.299 88.5776 266.384 88.5776C276.917 88.5776 285.065 85.195 291.226 79.8794L307.324 94.6986C295.996 105.169 281.687 110.162 265.39 110.162C232.399 110.162 204.576 91.9602 204.576 56.5228Z" fill="white"/>
<path d="M312.493 94.8597L328.79 78.5906C337.931 85.0339 350.452 88.5776 361.383 88.5776C373.108 88.5776 378.474 85.0339 378.474 79.396C378.474 73.275 371.518 71.342 360.19 67.6374L343.695 61.8384C329.982 57.4893 317.461 48.3076 317.461 33.1661C317.461 15.6082 336.937 1.43323 364.364 1.43323C379.865 1.43323 395.168 6.10461 406.298 14.4809L390.2 30.75C381.455 25.7564 372.512 23.018 364.364 23.018C354.824 23.018 348.663 26.0786 348.663 31.5554C348.663 37.6764 356.812 39.7705 368.338 43.4751L384.437 48.791C400.534 53.9455 410.074 62.6437 410.074 77.3021C410.074 94.8597 391.988 110.162 360.786 110.162C343.297 110.162 326.007 105.33 312.493 94.8597Z" fill="white"/>
<path d="M419.614 2.45161H453.4L473.87 48.0372C476.255 54.1582 478.441 60.4403 480.826 67.0447H481.621C484.005 60.4403 485.993 54.1582 488.576 48.0372L508.252 2.45161H542.037V107.315H514.015V70.9104C514.015 60.6014 516.599 42.7216 518.189 32.4126H517.394L506.662 59.7961L489.173 98.455H471.684L454.393 59.7961L444.059 32.4126H443.264C444.854 42.7216 447.437 60.6014 447.437 70.9104V107.315H419.614V2.45161Z" fill="white"/>
<path d="M3 129H557.21" stroke="white" stroke-width="3" stroke-linecap="round"/>
</svg>
